<svg width="16" height="16" viewBox="0 0 16 16" fill="none" xmlns="http://www.w3.org/2000/svg">
  <path d="M5.2 7.2V4.2C5.2 3.6 5.7 3.1 6.3 3.1C6.9 3.1 7.4 3.6 7.4 4.2V7.2" stroke="#FFFFFF" stroke-width="1.2" stroke-linecap="round"/>
  <path d="M7.4 7.2V3.6C7.4 3 7.9 2.5 8.5 2.5C9.1 2.5 9.6 3 9.6 3.6V7.2" stroke="#FFFFFF" stroke-width="1.2" stroke-linecap="round"/>
  <path d="M9.6 7.2V4.4C9.6 3.8 10.1 3.3 10.7 3.3C11.3 3.3 11.8 3.8 11.8 4.4V8.7" stroke="#FFFFFF" stroke-width="1.2" stroke-linecap="round"/>
  <path d="M5.2 7.2L4.3 6.3C3.9 5.9 3.2 5.9 2.8 6.3C2.4 6.7 2.4 7.4 2.8 7.8L5.6 10.6C6.2 11.2 7.1 11.5 8 11.5H9.8C11.5 11.5 12.9 10.1 12.9 8.4V7.8" stroke="#FFFFFF" stroke-width="1.2" stroke-linecap="round" stroke-linejoin="round"/>
</svg>
