<svg width="20" height="20" viewBox="0 0 24 24" fill="none" xmlns="http://www.w3.org/2000/svg">
  <path d="M12 8.5C10.067 8.5 8.5 10.067 8.5 12C8.5 13.933 10.067 15.5 12 15.5C13.933 15.5 15.5 13.933 15.5 12C15.5 10.067 13.933 8.5 12 8.5Z" stroke="#111111" stroke-width="1.6"/>
  <path d="M19.3 12.9C19.35 12.61 19.38 12.31 19.38 12C19.38 11.69 19.35 11.39 19.3 11.1L21.5 9.5L20 6.9L17.4 7.9C16.92 7.5 16.39 7.16 15.8 6.9L15.4 4H8.6L8.2 6.9C7.61 7.16 7.08 7.5 6.6 7.9L4 6.9L2.5 9.5L4.7 11.1C4.65 11.39 4.62 11.69 4.62 12C4.62 12.31 4.65 12.61 4.7 12.9L2.5 14.5L4 17.1L6.6 16.1C7.08 16.5 7.61 16.84 8.2 17.1L8.6 20H15.4L15.8 17.1C16.39 16.84 16.92 16.5 17.4 16.1L20 17.1L21.5 14.5L19.3 12.9Z" stroke="#111111" stroke-width="1.6" stroke-linejoin="round"/>
</svg>
